<svg xmlns="http://www.w3.org/2000/svg" width="171.982" height="120" viewBox="0 0 171.982 130">
<style type="text/css">
<![CDATA[
.cloud{
	transform: translateY(0px);
	animation: float-cloud 5s ease-in-out infinite;
}
.cloud-sh{
	transform: translate(-10px,3px);
	animation: float-cloud-sh 5s ease-in-out infinite;
	opacity:1;
}
@keyframes float-cloud {
	0% {
		box-shadow: 0 5px 15px 0px rgba(0,0,0,0.6);
		transform: translateY(0px);
	}
	50% {
		box-shadow: 0 25px 15px 0px rgba(0,0,0,0.2);
		transform: translateY(-5px);
	}
	100% {
		box-shadow: 0 5px 15px 0px rgba(0,0,0,0.6);
		transform: translateY(0px);
	}
}
@keyframes float-cloud-sh {
	0% {
		box-shadow: 0 5px 15px 0px rgba(0,0,0,0.6);
		transform: translate(-10px,-3px);
		opacity:1;
	}
	50% {
		box-shadow: 0 25px 15px 0px rgba(0,0,0,0.2);
		transform: translate(-10px,8px);
		opacity:.6;
	}
	100% {
		box-shadow: 0 5px 15px 0px rgba(0,0,0,0.6);
		transform: translate(-10px,-3px);
		opacity:1;
	}
}
]]>
</style>
<g style="transform: translate(10px, 10px);">
<path class="cloud-sh" d="M88.285,15.333a37.417,37.417,0,0,1,37.184,33.352l.368,3.4a4,4,0,0,0,3.28,3.525l3.372.613A19.143,19.143,0,0,1,143.739,63,20.459,20.459,0,0,1,148.4,75.907,21.168,21.168,0,0,1,142.6,90.253a18.807,18.807,0,0,1-13.519,6.008H27.865a18.486,18.486,0,0,1-13.457-6.039A21.11,21.11,0,0,1,8.614,75.876,21.858,21.858,0,0,1,12.63,63.338,19.844,19.844,0,0,1,22.96,55.644l3.157-1.012a4.015,4.015,0,0,0,2.79-3.74l.061-3.311a14.932,14.932,0,0,1,4.138-9.932,12.643,12.643,0,0,1,9.166-4.108,13.312,13.312,0,0,1,5,.981l3.4,1.379a4,4,0,0,0,4.813-1.441l2.085-3A37.3,37.3,0,0,1,88.285,15.333m0-8.583A45.916,45.916,0,0,0,50.457,26.583a21.729,21.729,0,0,0-8.246-1.625c-11.986,0-21.7,10.545-21.887,22.5C8.093,51.352,0,63.308,0,75.876c0,15.389,12.476,28.968,27.865,28.968H129.117c15.389,0,27.865-13.58,27.865-28.968,0-13.7-9.9-25.78-22.96-28.11A46.034,46.034,0,0,0,88.285,6.75Z"  fill="#3b3b4d"/>
<path class="cloud" d="M88.285,15.333a37.417,37.417,0,0,1,37.184,33.352l.368,3.4a4,4,0,0,0,3.28,3.525l3.372.613A19.143,19.143,0,0,1,143.739,63,20.459,20.459,0,0,1,148.4,75.907,21.168,21.168,0,0,1,142.6,90.253a18.807,18.807,0,0,1-13.519,6.008H27.865a18.486,18.486,0,0,1-13.457-6.039A21.11,21.11,0,0,1,8.614,75.876,21.858,21.858,0,0,1,12.63,63.338,19.844,19.844,0,0,1,22.96,55.644l3.157-1.012a4.015,4.015,0,0,0,2.79-3.74l.061-3.311a14.932,14.932,0,0,1,4.138-9.932,12.643,12.643,0,0,1,9.166-4.108,13.312,13.312,0,0,1,5,.981l3.4,1.379a4,4,0,0,0,4.813-1.441l2.085-3A37.3,37.3,0,0,1,88.285,15.333m0-8.583A45.916,45.916,0,0,0,50.457,26.583a21.729,21.729,0,0,0-8.246-1.625c-11.986,0-21.7,10.545-21.887,22.5C8.093,51.352,0,63.308,0,75.876c0,15.389,12.476,28.968,27.865,28.968H129.117c15.389,0,27.865-13.58,27.865-28.968,0-13.7-9.9-25.78-22.96-28.11A46.034,46.034,0,0,0,88.285,6.75Z"  fill="#4c4a98"/></g>
</svg>

